<svg width="44" height="44" viewBox="0 0 44 44" fill="none" xmlns="http://www.w3.org/2000/svg">
<circle cx="22" cy="22" r="22" fill="#010440"></circle>
<path d="M22.5574 12.039C22.542 12.026 22.5266 12.013 22.5113 12C18.1617 15.7239 11.2017 21.1519 10.0814 27.1729C9.55892 29.9808 11.6206 31.3393 14.2922 30.9277C17.4365 30.4433 19.3227 28.4036 20.5689 25.7297C21.1304 24.5244 21.0565 21.6239 19.4043 22.9647C19.2643 23.0783 19.2108 23.7474 19.1585 23.9363C19.068 24.2635 18.9705 24.5891 18.8599 24.9104C18.7037 25.3638 18.5299 25.8207 18.2899 26.2389C18.0923 26.5831 17.7335 27.1888 17.2397 27.0946C16.7346 26.9982 16.5012 26.1654 16.4572 25.7821C16.2815 24.2473 16.7112 22.6519 17.3446 21.26C18.2802 19.2043 19.681 17.3409 21.1156 15.5973C21.5871 15.0244 22.1384 14.4391 22.5157 13.7851C22.8927 14.4327 23.4388 15.0132 23.9064 15.5815C25.341 17.3251 26.7419 19.1885 27.6774 21.2442C28.3108 22.636 28.7406 24.2315 28.5648 25.7663C28.5209 26.1496 28.2875 26.9823 27.7823 27.0788C27.2885 27.173 26.9297 26.5673 26.7321 26.2231C26.4921 25.8049 26.3183 25.348 26.1622 24.8946C26.0515 24.5733 25.954 24.2477 25.8635 23.9205C25.8112 23.7316 25.7578 23.0626 25.6177 22.9489C23.9655 21.6081 23.8917 24.5086 24.4532 25.7138C25.7223 28.438 27.7088 30.5473 30.9388 30.9427C33.8923 31.3041 35.5907 29.4883 34.8109 26.6379C33.2174 20.8128 26.9786 15.7793 22.5574 12.039Z" fill="#F3F3F4"></path>
</svg>