<svg width="175" height="54" viewBox="0 0 936 180" fill="none" xmlns="http://www.w3.org/2000/svg">
<path d="M278.194 91.114V119.339H236.104V84.677C236.104 79.891 237.38 75.7249 239.94 72.1729C242.498 68.6259 245.84 65.531 249.968 62.888C255.744 59.422 262.51 56.783 270.271 54.965C278.027 53.151 286.033 52.241 294.288 52.241C312.277 52.241 321.274 58.597 321.274 71.306C321.274 74.277 320.862 77.0429 320.037 79.5999C319.21 82.1609 318.218 84.347 317.065 86.161C315.413 85.833 313.433 85.585 311.124 85.418C308.811 85.256 306.254 85.171 303.449 85.171C299.321 85.171 294.945 85.665 290.326 86.656C285.704 87.648 281.66 89.134 278.194 91.114ZM236.104 110.674H278.194V175.791C276.375 176.286 273.777 176.781 270.395 177.276C267.01 177.771 263.338 178.019 259.376 178.019C251.287 178.019 245.387 176.614 241.673 173.81C237.96 171.005 236.104 165.806 236.104 158.211V110.674Z" fill="#1A1C39"></path>
<path d="M353.461 134.691L351.975 106.96L409.169 97.552C408.836 94.252 407.188 90.952 404.217 87.648C401.246 84.348 396.623 82.696 390.352 82.696C383.748 82.696 378.259 84.843 373.887 89.134C369.511 93.428 367.159 99.532 366.83 107.455L368.315 128.253C369.963 135.848 373.719 141.128 379.581 144.099C385.438 147.071 391.999 148.556 399.264 148.556C406.197 148.556 412.797 147.651 419.072 145.832C425.343 144.018 430.376 142.038 434.175 139.89C436.814 141.542 439.042 143.851 440.86 146.822C442.675 149.793 443.584 152.931 443.584 156.231C443.584 161.678 441.561 166.177 437.519 169.724C433.472 173.276 427.901 175.876 420.807 177.524C413.707 179.172 405.537 180 396.295 180C383.42 180 371.822 177.563 361.508 172.696C351.19 167.829 343.02 160.525 336.996 150.784C330.969 141.047 327.959 128.833 327.959 114.14C327.959 103.246 329.73 93.837 333.283 85.915C336.83 77.992 341.577 71.554 347.519 66.603C353.461 61.651 360.103 57.98 367.45 55.584C374.793 53.193 382.344 51.995 390.105 51.995C401.823 51.995 412.056 54.265 420.807 58.803C429.554 63.345 436.405 69.535 441.357 77.372C446.309 85.214 448.784 94.251 448.784 104.484C448.784 110.097 447.214 114.387 444.08 117.359C440.942 120.33 436.567 122.229 430.957 123.054L353.461 134.691Z" fill="#1A1C39"></path>
<path d="M587.436 98.542V121.321H545.345V99.78C545.345 94.666 543.817 90.909 540.765 88.515C537.708 86.124 533.709 84.925 528.757 84.925C525.453 84.925 522.358 85.339 519.472 86.163C516.582 86.991 513.816 88.063 511.178 89.382V121.322H469.087V83.688C469.087 79.231 470.035 75.602 471.934 72.794C473.83 69.989 476.43 67.432 479.734 65.118C485.343 61.1569 492.442 57.98 501.027 55.585C509.608 53.194 519.016 51.996 529.253 51.996C547.903 51.996 562.263 56.081 572.334 64.252C582.399 72.421 587.436 83.853 587.436 98.542ZM469.087 110.674H511.178V175.791C509.359 176.286 506.76 176.781 503.378 177.276C499.993 177.771 496.321 178.019 492.36 178.019C484.271 178.019 478.372 176.614 474.657 173.81C470.944 171.005 469.086 165.806 469.086 158.211V110.674H469.087ZM545.345 110.674H587.436V175.791C585.618 176.286 583.019 176.781 579.637 177.276C576.252 177.771 572.581 178.019 568.619 178.019C560.529 178.019 554.629 176.614 550.916 173.81C547.202 171.005 545.345 165.806 545.345 158.211V110.674Z" fill="#1A1C39"></path>
<path d="M737.971 115.873C737.971 129.081 735.285 140.47 729.923 150.041C724.557 159.616 717.049 167.001 707.393 172.201C697.737 177.4 686.305 180 673.102 180C660.061 180 648.672 177.439 638.934 172.324C629.193 167.21 621.64 159.863 616.278 150.288C610.912 140.717 608.232 129.243 608.232 115.873C608.232 102.836 610.955 91.528 616.402 81.953C621.849 72.382 629.44 64.993 639.182 59.793C648.919 54.594 660.227 51.994 673.102 51.994C686.139 51.994 697.49 54.636 707.146 59.917C716.802 65.201 724.353 72.629 729.8 82.2C735.246 91.776 737.971 102.999 737.971 115.873ZM673.102 84.924C666.332 84.924 661.008 87.609 657.131 92.971C653.251 98.336 651.312 105.969 651.312 115.873C651.312 126.109 653.208 133.866 657.007 139.146C660.802 144.431 666.169 147.07 673.102 147.07C680.034 147.07 685.395 144.388 689.195 139.023C692.989 133.661 694.891 125.943 694.891 115.873C694.891 106.136 692.948 98.541 689.071 93.095C685.19 87.648 679.868 84.924 673.102 84.924Z" fill="#1A1C39"></path>
<path d="M850.875 53.2329C856.65 53.2329 861.521 54.471 865.483 56.946C869.444 59.422 871.425 63.7159 871.425 69.8209C871.425 72.9589 870.597 77.7439 868.949 84.1819C867.297 90.6189 865.15 97.9229 862.511 106.094C859.869 114.265 856.94 122.602 853.721 131.101C850.503 139.604 847.322 147.484 844.189 154.746C841.051 162.011 838.246 167.868 835.771 172.325C833.624 173.977 830.282 175.42 825.744 176.658C821.202 177.896 816.126 178.514 810.517 178.514C804.08 178.514 798.509 177.686 793.805 176.038C789.1 174.39 785.839 171.747 784.025 168.115C782.207 164.649 780.021 159.782 777.464 153.507C774.903 147.236 772.179 140.099 769.293 132.09C766.403 124.086 763.557 115.834 760.751 107.331C757.942 98.8319 755.342 90.6189 752.952 82.6959C750.557 74.7729 748.7 67.8409 747.381 61.8979C749.691 59.5879 752.785 57.5649 756.666 55.8319C760.542 54.0989 764.794 53.2319 769.417 53.2319C775.193 53.2319 779.979 54.4309 783.777 56.8219C787.572 59.2169 790.296 63.7149 791.948 70.3149L801.604 108.196C802.924 112.986 804.162 117.566 805.318 121.937C806.471 126.313 807.504 130.232 808.413 133.698C809.318 137.164 810.022 140.054 810.517 142.363H811.755C814.889 130.149 818.193 116.575 821.659 101.634C825.125 86.6979 828.259 72.1319 831.068 57.9339C837.01 54.8039 843.61 53.2329 850.875 53.2329Z" fill="#1A1C39"></path>
<path d="M889.252 22.284C889.252 16.013 891.395 10.732 895.69 6.43799C899.98 2.14699 905.508 0 912.278 0C919.044 0 924.573 2.14699 928.867 6.43799C933.157 10.732 935.304 16.013 935.304 22.284C935.304 28.393 933.157 33.634 928.867 38.006C924.573 42.382 919.044 44.567 912.278 44.567C905.508 44.567 899.98 42.382 895.69 38.006C891.396 33.634 889.252 28.392 889.252 22.284ZM933.323 132.71H891.233V57.442C893.047 56.947 895.647 56.451 899.032 55.957C902.413 55.462 906.088 55.214 910.05 55.214C918.302 55.214 924.244 56.576 927.877 59.299C931.505 62.023 933.323 67.265 933.323 75.021V132.71ZM891.233 110.674H933.323V175.791C931.505 176.286 928.906 176.781 925.524 177.276C922.139 177.771 918.468 178.019 914.506 178.019C906.417 178.019 900.517 176.614 896.803 173.81C893.089 171.005 891.233 165.806 891.233 158.211V110.674Z" fill="#1A1C39"></path>
<path d="M97.9375 30.308C97.8185 30.205 97.6995 30.102 97.5805 30C63.8995 59.399 10.0036 102.252 1.3276 149.786C-2.7184 171.954 13.2465 182.679 33.9345 179.429C58.2835 175.605 72.8895 159.502 82.5395 138.392C86.8875 128.877 86.3155 105.978 73.5205 116.564C72.4365 117.461 72.0216 122.743 71.6176 124.234C70.9166 126.817 70.1617 129.388 69.3046 131.924C68.0956 135.504 66.7496 139.111 64.8906 142.412C63.3606 145.129 60.5813 149.911 56.7583 149.167C52.8463 148.406 51.0397 141.832 50.6987 138.805C49.3377 126.688 52.6653 114.093 57.5703 103.105C64.8153 86.876 75.6624 72.165 86.7724 58.399C90.4224 53.876 94.6912 49.256 97.6132 44.092C100.532 49.205 104.761 53.787 108.382 58.274C119.492 72.04 130.339 86.751 137.584 102.98C142.489 113.968 145.817 126.563 144.456 138.68C144.117 141.707 142.308 148.281 138.396 149.042C134.572 149.786 131.795 145.004 130.265 142.287C128.406 138.985 127.06 135.378 125.851 131.799C124.995 129.263 124.239 126.692 123.539 124.109C123.134 122.618 122.719 117.336 121.635 116.439C108.841 105.853 108.27 128.752 112.618 138.267C122.446 159.774 137.827 176.426 162.84 179.547C185.711 182.401 198.864 168.065 192.826 145.562C180.486 99.575 132.173 59.837 97.9375 30.308Z" fill="#1A1C39"></path>
</svg>